<mxfile host="app.diagrams.net" agent="Mozilla/5.0 (X11; CrOS x86_64 14541.0.0) AppleWebKit/537.36 (KHTML, like Gecko) Chrome/126.0.0.0 Safari/537.36" version="24.7.6">
  <diagram name="Page-1" id="GzbXWpjVWJ6KMuiCW0he">
    <mxGraphModel dx="704" dy="1537" grid="1" gridSize="10" guides="1" tooltips="1" connect="1" arrows="1" fold="1" page="1" pageScale="1" pageWidth="827" pageHeight="1169" math="0" shadow="0">
      <root>
        <mxCell id="0" />
        <mxCell id="1" parent="0" />
        <mxCell id="u0Mmt1EPjNHmDpBYkXBJ-1" value="" style="rounded=1;whiteSpace=wrap;html=1;" vertex="1" parent="1">
          <mxGeometry x="30" y="-520" width="170" height="70" as="geometry" />
        </mxCell>
        <mxCell id="u0Mmt1EPjNHmDpBYkXBJ-2" value="" style="endArrow=classic;html=1;rounded=0;exitX=1;exitY=0.5;exitDx=0;exitDy=0;" edge="1" parent="1" source="u0Mmt1EPjNHmDpBYkXBJ-1">
          <mxGeometry width="50" height="50" relative="1" as="geometry">
            <mxPoint x="360" y="-380" as="sourcePoint" />
            <mxPoint x="280" y="-485" as="targetPoint" />
          </mxGeometry>
        </mxCell>
        <mxCell id="u0Mmt1EPjNHmDpBYkXBJ-6" value="USER/PENGUNJUNG" style="text;html=1;align=center;verticalAlign=middle;whiteSpace=wrap;rounded=0;" vertex="1" parent="1">
          <mxGeometry x="30" y="-500" width="170" height="30" as="geometry" />
        </mxCell>
        <mxCell id="u0Mmt1EPjNHmDpBYkXBJ-8" value="" style="rounded=1;whiteSpace=wrap;html=1;" vertex="1" parent="1">
          <mxGeometry x="280" y="-520" width="170" height="70" as="geometry" />
        </mxCell>
        <mxCell id="u0Mmt1EPjNHmDpBYkXBJ-11" style="edgeStyle=orthogonalEdgeStyle;rounded=0;orthogonalLoop=1;jettySize=auto;html=1;" edge="1" parent="1" source="u0Mmt1EPjNHmDpBYkXBJ-9">
          <mxGeometry relative="1" as="geometry">
            <mxPoint x="500" y="-485" as="targetPoint" />
          </mxGeometry>
        </mxCell>
        <mxCell id="u0Mmt1EPjNHmDpBYkXBJ-9" value="Membuka Landing Page" style="text;html=1;align=center;verticalAlign=middle;whiteSpace=wrap;rounded=0;" vertex="1" parent="1">
          <mxGeometry x="280" y="-500" width="170" height="30" as="geometry" />
        </mxCell>
        <mxCell id="u0Mmt1EPjNHmDpBYkXBJ-10" value="" style="rounded=1;whiteSpace=wrap;html=1;" vertex="1" parent="1">
          <mxGeometry x="500" y="-520" width="170" height="70" as="geometry" />
        </mxCell>
        <mxCell id="u0Mmt1EPjNHmDpBYkXBJ-15" style="edgeStyle=orthogonalEdgeStyle;rounded=0;orthogonalLoop=1;jettySize=auto;html=1;entryX=0;entryY=0.5;entryDx=0;entryDy=0;exitX=1;exitY=0.5;exitDx=0;exitDy=0;" edge="1" parent="1" source="u0Mmt1EPjNHmDpBYkXBJ-12" target="u0Mmt1EPjNHmDpBYkXBJ-13">
          <mxGeometry relative="1" as="geometry">
            <mxPoint x="710" y="-560" as="targetPoint" />
            <Array as="points">
              <mxPoint x="720" y="-485" />
              <mxPoint x="720" y="-555" />
            </Array>
          </mxGeometry>
        </mxCell>
        <mxCell id="u0Mmt1EPjNHmDpBYkXBJ-12" value="Memilih Layanan" style="text;html=1;align=center;verticalAlign=middle;whiteSpace=wrap;rounded=0;" vertex="1" parent="1">
          <mxGeometry x="500" y="-500" width="170" height="30" as="geometry" />
        </mxCell>
        <mxCell id="u0Mmt1EPjNHmDpBYkXBJ-13" value="StudioPhoto" style="rounded=1;whiteSpace=wrap;html=1;" vertex="1" parent="1">
          <mxGeometry x="760" y="-590" width="170" height="70" as="geometry" />
        </mxCell>
        <mxCell id="u0Mmt1EPjNHmDpBYkXBJ-17" style="edgeStyle=orthogonalEdgeStyle;rounded=0;orthogonalLoop=1;jettySize=auto;html=1;entryX=0;entryY=0.5;entryDx=0;entryDy=0;" edge="1" parent="1" target="u0Mmt1EPjNHmDpBYkXBJ-14">
          <mxGeometry relative="1" as="geometry">
            <mxPoint x="710.0000000000002" y="-470" as="targetPoint" />
            <mxPoint x="720" y="-500" as="sourcePoint" />
            <Array as="points">
              <mxPoint x="720" y="-425" />
            </Array>
          </mxGeometry>
        </mxCell>
        <mxCell id="u0Mmt1EPjNHmDpBYkXBJ-14" value="&lt;span style=&quot;color: rgb(0, 0, 0); font-family: Helvetica; font-size: 12px; font-style: normal; font-variant-ligatures: normal; font-variant-caps: normal; font-weight: 400; letter-spacing: normal; orphans: 2; text-align: center; text-indent: 0px; text-transform: none; widows: 2; word-spacing: 0px; -webkit-text-stroke-width: 0px; white-space: normal; background-color: rgb(251, 251, 251); text-decoration-thickness: initial; text-decoration-style: initial; text-decoration-color: initial; display: inline !important; float: none;&quot;&gt;Photografer&lt;/span&gt;" style="rounded=1;whiteSpace=wrap;html=1;" vertex="1" parent="1">
          <mxGeometry x="760" y="-460" width="170" height="70" as="geometry" />
        </mxCell>
        <mxCell id="u0Mmt1EPjNHmDpBYkXBJ-20" value="" style="endArrow=none;html=1;rounded=0;exitX=1;exitY=0.5;exitDx=0;exitDy=0;" edge="1" parent="1" source="u0Mmt1EPjNHmDpBYkXBJ-13">
          <mxGeometry width="50" height="50" relative="1" as="geometry">
            <mxPoint x="930" y="-550" as="sourcePoint" />
            <mxPoint x="970" y="-425" as="targetPoint" />
            <Array as="points">
              <mxPoint x="970" y="-555" />
            </Array>
          </mxGeometry>
        </mxCell>
        <mxCell id="u0Mmt1EPjNHmDpBYkXBJ-21" value="" style="endArrow=none;html=1;rounded=0;exitX=1;exitY=0.5;exitDx=0;exitDy=0;" edge="1" parent="1" source="u0Mmt1EPjNHmDpBYkXBJ-14">
          <mxGeometry width="50" height="50" relative="1" as="geometry">
            <mxPoint x="930" y="-420" as="sourcePoint" />
            <mxPoint x="970" y="-425" as="targetPoint" />
          </mxGeometry>
        </mxCell>
        <mxCell id="u0Mmt1EPjNHmDpBYkXBJ-22" value="" style="endArrow=classic;html=1;rounded=0;" edge="1" parent="1">
          <mxGeometry width="50" height="50" relative="1" as="geometry">
            <mxPoint x="970" y="-490" as="sourcePoint" />
            <mxPoint x="1030" y="-490" as="targetPoint" />
          </mxGeometry>
        </mxCell>
        <mxCell id="u0Mmt1EPjNHmDpBYkXBJ-23" value="Layanan Whatsapp" style="rounded=1;whiteSpace=wrap;html=1;" vertex="1" parent="1">
          <mxGeometry x="1030" y="-520" width="170" height="70" as="geometry" />
        </mxCell>
      </root>
    </mxGraphModel>
  </diagram>
</mxfile>
